<?xml version="1.0" encoding="utf-8"?>
<!-- Generator: Adobe Illustrator 18.1.1, SVG Export Plug-In . SVG Version: 6.00 Build 0)  -->
<svg version="1.1" id="Layer_1" xmlns="http://www.w3.org/2000/svg" xmlns:xlink="http://www.w3.org/1999/xlink" x="0px" y="0px"
	 width="256px" height="229.4px" viewBox="0 0 256 229.4" style="enable-background:new 0 0 256 229.4;" xml:space="preserve">
<style type="text/css">
	.st0{fill:#3B3A33;}
</style>
<g>
	<path class="st0" d="M39.2,93.9l0.3-0.3c0.4-1.6,1.1-6.8-4-11.8c-5.1-4.9-11.2-5.1-13-5l-0.1,0.1c0,1.8,0.3,7.8,5.2,12.8
		C32.6,94.8,37.7,94.3,39.2,93.9z"/>
	<path class="st0" d="M142.2,155.6c3.5-3.7,3.8-8,3.7-9.3l-0.1,0c-1.3-0.1-5.7,0.1-9.4,3.6c-0.7,0.6-1.2,1.3-1.6,1.9V138
		c3.1,2.7,7.2,4.4,11.7,4.4h47.9c6.3,0,11.8-3.3,15-8.2h10.4c9.9,0,17.9-8,17.9-17.9V99.8c1.7,0.1,4.5-0.3,7.3-3.2
		c3.6-3.7,3.8-8,3.8-9.3l0,0c-1.3-0.1-5.7,0.1-9.4,3.7c-0.6,0.6-1.1,1.2-1.6,1.9v-1c0-1.7-1.4-3.1-3.1-3.1c-1.7,0-3.1,1.4-3.1,3.1
		v12.8c-0.1-0.1-0.2-0.2-0.2-0.3c-3.7-3.6-8.1-3.7-9.4-3.7l0,0.1c0,1.3,0.2,5.6,3.8,9.3c2.1,2.2,4.3,3,6,3.2v3.3
		c0,6.5-5.3,11.7-11.7,11.7h-8c0.2-0.9,0.3-1.8,0.3-2.8c0.2-1.3,0.3-4.4-2.7-7.3c-3.3-3.2-7.3-3.3-8.5-3.3l0,0
		c0,1.2,0.2,5.1,3.4,8.4c0.6,0.6,1.1,1.1,1.7,1.4c0,0,0,0,0,0c0,6.5-5.3,11.7-11.7,11.7h-11.3c2.7-3.1,4.4-7.2,4.4-11.7v-23.5
		c2.2,0.2,6.4,0,10.6-4.4c4.9-5.1,5.2-11,5.2-12.8l-0.1-0.1c-1.8-0.1-7.9,0.1-13,5c-1.2,1.2-2.1,2.4-2.8,3.6V74.6c0-0.2,0-0.3,0-0.5
		c0,0,0-0.2,0-0.4c1.2,0.2,4.3,0.4,7.4-2.8c3.2-3.3,3.4-7.2,3.4-8.4l0,0c-1.2,0-5.1,0.1-8.5,3.3c-1,1-1.7,2-2.1,2.9
		c0.4-2.3,1.2-5,3-7.1c2.4-2.8,6.1-4.1,11.2-4.1c1.7,0,3.1-1.4,3.1-3.1s-1.4-3.1-3.1-3.1c-6.9,0-12.3,2.1-15.9,6.3
		c-5.6,6.4-4.8,15.5-4.6,17.2v8.3c-0.6-1.5-1.7-3-3.3-4.6c-5.1-4.9-11.2-5.1-13-5l-0.1,0.1c0,1.8,0.3,7.8,5.2,12.9
		c4.5,4.7,9.2,4.6,11.1,4.3v17c-0.8-1.2-1.7-2.4-3-3.7c-6.4-6.1-13.9-6.3-16.2-6.3l-0.1,0.1c0,2.2,0.3,9.6,6.5,16
		c4.9,5.1,10,5.7,12.8,5.5v5.3c0,6.5-5.3,11.7-11.7,11.7h-23.1c-6.2,0-11.3-4.9-11.7-11l0.1,0.1c1.1,0.2,4.8,0.6,8.4-3
		c3.6-3.7,3.8-8,3.7-9.3l-0.1,0c-1.3-0.1-5.7,0.1-9.4,3.6c-1.7,1.6-2.5,3.3-2.9,4.7v-10.6c0.3,0.1,0.7,0.2,1.1,0.2
		c9.9,0,17.9-8,17.9-17.9V77.4c1.6,0.2,4.6-0.1,7.6-3.2c3.6-3.7,3.8-8,3.7-9.3l0,0c-1.3-0.1-5.7,0.1-9.4,3.6
		c-0.9,0.8-1.5,1.6-1.9,2.4V43.8c1.6,0.3,6.6,0.8,11.5-4.2c4.9-5.1,5.2-11,5.2-12.8l-0.1-0.1c-1.8-0.1-7.9,0.1-13,5
		c-1.9,1.9-3,3.8-3.6,5.5V20.3c0-1.7-1.4-3.1-3.1-3.1c-1.2,0-2.2,0.7-2.7,1.7c-0.6-2.6-1.9-5.6-5-8.6c-6.4-6.1-13.9-6.3-16.2-6.3
		l-0.1,0.1c0,2.2,0.3,9.6,6.5,16c6.1,6.4,12.5,5.7,14.4,5.2l0,0v22.8c-0.7-1.5-1.7-3-3.3-4.6c-5.1-4.9-11.2-5.1-13-5l-0.1,0.1
		c0,1.8,0.3,7.8,5.2,12.8c4.5,4.7,9.2,4.6,11.1,4.3v37.4c0,6.5-5.3,11.7-11.7,11.7c-0.4,0-0.8,0.1-1.1,0.2v-5.2c0,0,0,0,0-0.1v-9.1
		l0,0c1,0.2,4.3,0.6,7.5-2.7c3.2-3.3,3.4-7.2,3.4-8.3l0,0c-1.2,0-5.1,0.1-8.4,3.3c-1.3,1.3-2.1,2.6-2.4,3.8V68
		c0-9.9-8-17.9-17.9-17.9h-3.3c-0.1-1.7-0.7-4-3-6.3c-3.6-3.5-7.9-3.6-9.2-3.6l0,0c0,1.3,0.2,5.5,3.7,9.1c0.3,0.3,0.5,0.5,0.8,0.7
		H95.5c-0.5-2.7-1.9-5.9-5.1-9c-6.4-6.1-13.9-6.3-16.2-6.2L74.2,35c0,2.2,0.3,9.6,6.5,16c5.7,5.9,11.6,5.7,14,5.3H117
		c6.5,0,11.7,5.3,11.7,11.7v8.8c-0.7-2.2-2.1-4.5-4.5-6.9c-6.4-6.1-13.9-6.3-16.2-6.3l-0.1,0.1c0,2.2,0.3,9.6,6.5,16
		c6.1,6.3,12.3,5.7,14.3,5.3v29.7c0,0,0,0,0,0v9.7c-0.7-1.4-1.6-2.9-3.2-4.3c-5.1-4.9-11.2-5.1-13-5l-0.1,0.1
		c0,1.8,0.3,7.8,5.2,12.9c4.5,4.6,9,4.6,11,4.3v7.1c0,6.5-5.3,11.7-11.7,11.7h-10.9c2.7-3.1,4.4-7.2,4.4-11.7v-38.5
		c1.4,0.2,4.6,0.1,7.6-3c3.4-3.6,3.7-7.7,3.6-9l0,0c-1.3-0.1-5.5,0.1-9.1,3.5c-1,1-1.7,1.9-2.1,2.9v-5.8c0-9.5-7.5-17.3-16.9-17.9
		c-0.5-1-1.2-2.1-2.3-3.1c-3.6-3.5-7.9-3.6-9.2-3.6l0,0c0,1.3,0.2,5.5,3.7,9.1c1.7,1.8,3.4,2.6,4.9,2.9c0.5,0.5,1.2,0.8,2,0.8
		c6.5,0,11.7,5.3,11.7,11.7v17.1c-0.7-1.3-1.6-2.7-3.1-4.1c-5.1-4.9-11.2-5.1-13-5l-0.1,0.1c0,1.8,0.3,7.8,5.2,12.8
		c4.4,4.5,8.9,4.6,10.9,4.3v17.6c-0.7-1.9-1.9-4.1-4.1-6.2c-5.8-5.6-12.6-5.8-14.7-5.7l-0.1,0.1c0,2,0.3,8.8,5.9,14.5
		c5.5,5.7,11.1,5.2,13,4.8c-0.2,6.3-5.4,11.3-11.7,11.3H82.4H68.6v-4.9c1.6,0.2,5.5,0.3,9.2-3.6c4.1-4.2,4.3-9.1,4.3-10.6l-0.1-0.1
		c-1.5-0.1-6.5,0.1-10.8,4.2c-1.3,1.3-2.1,2.5-2.7,3.7v-25.4c1.4,0.2,4.6,0.1,7.6-3c3.4-3.6,3.7-7.7,3.6-9l0,0
		c-1.3-0.1-5.5,0.1-9.1,3.5c-1,0.9-1.6,1.9-2.1,2.8c0.3-6.2,5.4-11.1,11.7-11.1c1.7,0,3.1-1.4,3.1-3.1c0-1.7-1.4-3.1-3.1-3.1
		c-9.9,0-17.9,8-17.9,17.9v9.9c-0.4-1-1.1-2.1-2.2-3.2c-3.4-3.3-7.4-3.4-8.6-3.3l0,0c0,1.2,0.2,5.1,3.4,8.5c3.1,3.2,6.2,3,7.4,2.8
		v27.1h-4.7c-5.6,0-10.3-3.9-11.4-9.2l0.1,0.1c1.3,0.3,5.5,0.7,9.6-3.5c4.1-4.2,4.3-9.1,4.3-10.6l-0.1-0.1
		c-1.5-0.1-6.5,0.1-10.8,4.2c-2.3,2.2-3.2,4.6-3.5,6.4v-37.9c0,0.2,0.1,0.4,0.1,0.5l0.3,0.3c1.6,0.3,6.6,0.9,11.6-4.2
		c4.9-5.1,5.2-11,5.2-12.8l-0.1-0.1c-1.8-0.1-7.9,0.1-13,5c-2.7,2.6-3.8,5.3-4.1,7.5V73.8c0-1.7-1.4-3.1-3.1-3.1
		c-1.7,0-3.1,1.4-3.1,3.1V113c-0.8-1.8-2.1-3.8-4.1-5.7c-6.4-6.1-13.9-6.3-16.2-6.3l-0.1,0.1c0,2.2,0.3,9.6,6.5,16
		c5.7,5.9,11.5,5.7,13.9,5.3v16.9c0,4.5,1.7,8.6,4.4,11.7H29.7c-5.3,0-9.8-3.6-11.3-8.5c2.1,0.3,6.5,0.1,10.8-4.3
		c4.9-5.1,5.2-11,5.2-12.9l-0.1-0.1c-1.8-0.1-7.9,0.1-13,5c-2.5,2.5-3.6,5-4.1,7.1c-0.6-0.7-1.4-1.2-2.4-1.2c-0.5,0-1,0.1-1.4,0.3
		c-0.3-1.4-1-3-2.7-4.6c-3.4-3.3-7.4-3.4-8.6-3.3l0,0c0,1.2,0.2,5.1,3.4,8.5c2.3,2.4,4.7,2.9,6.2,2.9c0.4,9.5,8.3,17.1,17.9,17.1h28
		h4.7v2c0,0.6,0,1.2,0.1,1.8c-2.9-1.9-5.8-1.9-6.8-1.9l0,0c0,1.2,0.2,5.1,3.4,8.5c3,3.1,6,3,7.3,2.9c2.9,3.5,7,5.9,11.8,6.5
		c-1.6,0.4-3.6,1.2-5.5,3.2c-3.8,4-4.1,8.6-4,10l0.1,0.1c1.4,0.1,6.1-0.1,10.1-3.9c4-3.9,3.4-8,3.1-9.2l0,0h19.3
		c-0.9,0.4-1.9,1.1-2.9,2.1c-3.2,3.4-3.4,7.3-3.4,8.4l0,0c1.2,0.1,5.2-0.1,8.6-3.3c2.9-2.8,3-5.8,2.7-7.2
		c5.9,0.6,10.5,5.6,10.5,11.6v18.5c0,6.5-5.3,11.7-11.7,11.7c-1.7,0-3.1,1.4-3.1,3.1c0,1.7,1.4,3.1,3.1,3.1c9.9,0,17.9-8,17.9-17.9
		v-18.5c0-2.7-0.6-5.3-1.7-7.6c7.8-1.9,13.6-9,13.6-17.4v-5C136.5,158.9,139.4,158.5,142.2,155.6z M117,175.6
		c-3.2-2.9-7.4-4.6-12-4.6H105c0,0,0,0,0,0H86.6c0.9-0.4,1.7-1.1,2.6-2c3.2-3.3,3.4-7.2,3.4-8.3l0,0c-1.2-0.1-5.1,0.1-8.4,3.3
		c-2.9,2.8-2.9,5.7-2.7,7.1h-1.1c-6.5,0-11.7-5.3-11.7-11.7v-2h13.8h10.2H117c4.5,0,8.6-1.7,11.7-4.4v11
		C128.7,170.3,123.5,175.5,117,175.6z"/>
	<path class="st0" d="M154.1,20.3c1,0.2,4.3,0.6,7.5-2.7c3.2-3.3,3.4-7.2,3.4-8.3l0,0c-1.2,0-5.1,0.1-8.4,3.3
		c-3.3,3.2-2.9,6.6-2.6,7.6L154.1,20.3z"/>
	<path class="st0" d="M253.8,124.2L253.8,124.2c-1.4-0.1-5.8,0-9.5,3.6c-0.5,0.5-1,1.1-1.4,1.6c-0.5-1.1-1.6-2-2.9-2
		c-1.7,0-3.1,1.4-3.1,3.1v17.9c-0.6-1.5-1.7-3.2-3.3-4.8c-5.1-4.9-11.1-5.1-12.9-5l-0.1,0.1c0,1.8,0.3,7.7,5.2,12.7
		c4.6,4.7,9.2,4.6,11.1,4.3c-0.3,6.2-5.4,11.2-11.7,11.2h-28.5c1-0.6,2.1-1.4,3.2-2.5c4.6-4.8,4.9-10.3,4.9-12l-0.1-0.1
		c-1.7-0.1-7.4,0.1-12.2,4.7c-3.9,3.8-4.2,7.7-4,9.9h-13.3c-6,0-11-4.6-11.6-10.5h20c0.9,0,1.7-0.4,2.3-1c1.4-0.1,3.4-0.7,5.3-2.7
		c3.1-3.2,3.2-6.9,3.2-8l0,0c-1.1,0-4.9,0.1-8.1,3.1c-0.9,0.9-1.5,1.7-1.9,2.6c-0.3-0.1-0.5-0.1-0.8-0.1H159
		c-9.9,0-17.9,8-17.9,17.9v39.1c0,9.9,8,17.9,17.9,17.9c1.7,0,3.1-1.4,3.1-3.1c0-1.7-1.4-3.1-3.1-3.1c-6.5,0-11.7-5.3-11.7-11.7v-20
		c1.1,0.1,3.1-0.1,5-2.1c2.3-2.4,2.5-5.3,2.5-6.1l0,0c-0.9,0-3.8,0-6.2,2.4c-0.5,0.5-1,1.1-1.2,1.6v-7.7c1.4,0.1,3.8-0.3,6.2-2.7
		c3.1-3.2,3.2-6.9,3.2-8l0,0c-1.1,0-4.9,0.1-8.1,3.1c-0.5,0.5-0.9,1-1.3,1.5v-1c0-6,4.5-10.9,10.2-11.6c0.7,9.2,8.4,16.5,17.8,16.5
		h26.8c-0.3,1.9-0.2,6.1,4.1,10.2c4.8,4.6,10.3,4.9,12,4.9l0.1-0.1c0.1-1.7-0.1-7.4-4.7-12.2c-1.3-1.3-2.5-2.2-3.8-2.8h15.5
		c9.9,0,17.9-8,17.9-17.9v-18.4c1.7,0,4.3-0.6,6.9-3.2C253.6,129.9,253.8,125.6,253.8,124.2z"/>
</g>
<g>
</g>
<g>
</g>
<g>
</g>
<g>
</g>
<g>
</g>
<g>
</g>
<g>
</g>
<g>
</g>
<g>
</g>
<g>
</g>
<g>
</g>
<g>
</g>
<g>
</g>
<g>
</g>
<g>
</g>
</svg>
